<?xml version="1.0" encoding="UTF-8"?>
<svg width="40px" height="40px" viewBox="0 0 40 40" version="1.1" xmlns="http://www.w3.org/2000/svg" xmlns:xlink="http://www.w3.org/1999/xlink">
    <!-- Generator: Sketch 52 (66869) - http://www.bohemiancoding.com/sketch -->
    <title>noun_quality_652198</title>
    <desc>Created with Sketch.</desc>
    <g id="Welcome" stroke="none" stroke-width="1" fill="none" fill-rule="evenodd">
        <g id="Index" transform="translate(-79.000000, -1495.000000)" fill="#CA262D">
            <g id="Servicios" transform="translate(79.000000, 1376.000000)">
                <g id="serv-1" transform="translate(0.000000, 119.000000)">
                    <g id="noun_quality_652198">
                        <path d="M25.6989115,16.1743034 C25.3485427,15.9033796 24.8355026,15.9537236 24.550964,16.2874478 L19.5783383,22.1195754 L16.339059,19.5421663 C15.9924986,19.2665715 15.4778264,19.3112064 15.1894794,19.6412975 C14.9005883,19.9713885 14.9473767,20.462373 15.2933931,20.7374489 L19.1675799,23.8193368 C19.3356916,23.9527226 19.5516798,24.016561 19.7687562,23.9963195 C19.9852885,23.9765971 20.1854992,23.8743519 20.3236881,23.7124205 L25.8175146,17.2688978 C26.1009651,16.9356926 26.0487362,16.4452271 25.6989115,16.1743034 Z" id="Path"></path>
                        <path d="M20.5,6 C12.4905283,6 6,12.4916226 6,20.5 C6,28.5078302 12.4905283,35 20.5,35 C28.5100189,35 35,28.5078302 35,20.5 C35,12.4921698 28.5100189,6 20.5,6 Z M20.5,33.3584906 C13.4103208,33.3584906 7.64150943,27.5902264 7.64150943,20.5 C7.64150943,13.4097736 13.4103208,7.64150943 20.5,7.64150943 C27.5907736,7.64150943 33.3584906,13.4097736 33.3584906,20.5 C33.3584906,27.5902264 27.5907736,33.3584906 20.5,33.3584906 Z" id="Shape" fill-rule="nonzero"></path>
                        <path d="M39.9023876,25.6347402 L38.9645323,21.8440464 C38.8358615,21.3327048 38.7593245,20.563474 38.7609883,19.8097721 C38.7598791,19.1048749 38.8269876,18.3999778 38.9401292,17.9208031 L39.8313968,14.1195718 L39.8319514,14.117908 C39.8912953,13.8600189 39.9190261,13.5982475 39.9195807,13.3381399 C39.9173622,12.6581998 39.7365575,11.9904609 39.4215357,11.39482 C39.1054047,10.800843 38.6511744,10.2717542 38.0582901,9.91181853 L34.7139569,7.89418224 C34.2769197,7.63241085 33.7023377,7.1659919 33.1843266,6.65187732 C32.6640969,6.13998114 32.1899004,5.57151572 31.9225756,5.1378182 L29.8649511,1.81908935 C29.5016777,1.23675892 28.9753473,0.793078587 28.3852361,0.484720759 C27.7940157,0.176917531 27.1334683,0.00110920082 26.461274,0 C26.1856299,0 25.908322,0.031057623 25.635451,0.0981642726 L21.8452067,1.03654817 C21.3327417,1.16410626 20.5634896,1.24119572 19.8097668,1.24008652 C19.1048501,1.24119572 18.3999334,1.17408907 17.9218546,1.06095059 L14.1199634,0.169707726 C13.8609578,0.109256281 13.5986246,0.0815262603 13.3390644,0.0815262603 C12.6585508,0.0826354612 11.9902388,0.264544396 11.3956906,0.579557429 C10.8011425,0.895679663 10.2725937,1.3498974 9.91264801,1.94331984 L7.89551039,5.28645111 C7.63317712,5.72403084 7.16674524,6.29859686 6.65317102,6.81714824 C6.14126064,7.33736343 5.57222484,7.81099218 5.13906991,8.07775498 L1.82024902,10.1358771 C1.23734783,10.4985858 0.79310058,11.0254562 0.4847342,11.615551 C0.176922437,12.2062004 0.00166384737,12.8678387 0,13.5394598 C0.00055461579,13.8150962 0.0310584842,14.092951 0.0987216106,14.3658144 L1.03713153,18.1559536 C1.16413854,18.6672952 1.24123014,19.436526 1.23956629,20.1902279 C1.24123014,20.8951251 1.17467624,21.6005768 1.06098001,22.0797515 L0.169712432,25.8809828 L0.170821663,25.8765459 C0.108150079,26.1394265 0.0815285211,26.4028617 0.0809739053,26.6618601 C0.0826377527,27.3423548 0.263997116,28.0100937 0.579018885,28.6057346 C0.895704501,29.1997116 1.34938022,29.7282458 1.94281911,30.0887361 L5.28770694,32.1058178 C5.72418957,32.3681438 6.29932614,32.8345627 6.81733729,33.3481227 C7.3375669,33.8600189 7.81065417,34.4284843 8.07797898,34.8627364 L10.1361582,38.1809107 C10.4988769,38.7632411 11.0257619,39.2069214 11.6147639,39.5152792 C12.2059843,39.8230825 12.8670863,39.9988908 13.5398353,40 C13.8149247,40 14.0922326,39.969497 14.3651036,39.9018357 L18.1564571,38.9640064 C18.6667036,38.8358937 19.437065,38.7588043 20.1907878,38.7604681 C20.8957045,38.7593589 21.6011758,38.8259109 22.0798092,38.939604 L25.8811458,39.8308469 C26.1395968,39.8912983 26.4013754,39.9184737 26.6620449,39.9184737 C27.3420038,39.9173645 28.0103159,39.7354556 28.6059732,39.4209972 C29.1994121,39.1043203 29.7290702,38.6506572 30.0890158,38.0572348 L32.1061535,34.7141035 C32.3684867,34.2765238 32.8349186,33.7019577 33.3484928,33.1834064 C33.8598486,32.6631912 34.4288844,32.1895624 34.8625939,31.9227996 L38.1814148,29.8646775 C38.764316,29.5014142 39.207454,28.9745438 39.5158204,28.3850036 C39.8230776,27.7937996 39.9988908,27.1327159 40,26.4605402 C40,26.186013 39.9023876,25.6347402 39.9023876,25.6347402 Z M38.0405424,27.6146636 C37.851973,27.9790361 37.5824298,28.2790749 37.3045673,28.4498919 L33.986301,30.508014 C33.382879,30.8834785 32.7511716,31.4214409 32.1643881,32.0143087 C31.5792685,32.6082857 31.0490558,33.2466308 30.6813455,33.8539183 L28.6642079,37.1970495 C28.4950501,37.4804503 28.1927844,37.7566413 27.8256288,37.9501969 C27.4595824,38.1459708 27.0341921,38.2557817 26.6614903,38.2541179 C26.5178448,38.2541179 26.3825185,38.2391437 26.2599484,38.2103045 L22.4586118,37.3190616 C21.7891905,37.1637735 20.9949807,37.0972215 20.189124,37.0961123 C19.3266964,37.0972215 18.4675966,37.1732017 17.7543607,37.3484554 L13.9635617,38.2862847 C13.8337816,38.3190062 13.6895815,38.3356442 13.5376168,38.3356442 C13.1660242,38.337308 12.7456255,38.2308247 12.3829067,38.0400421 C12.0190788,37.8509234 11.7190316,37.5819422 11.5487646,37.3040874 L9.49003078,33.9853585 C9.11455589,33.3825079 8.57713319,32.7502634 7.98424891,32.1640508 C7.3902554,31.5783928 6.75189263,31.0481948 6.14458834,30.6799401 L2.80025512,28.6628584 C2.51684645,28.4942599 2.24064779,28.1920027 2.04708688,27.8243026 C1.85075289,27.4588209 1.74149358,27.0334424 1.74315743,26.6607509 C1.74260281,26.5160002 1.75757744,26.3823415 1.78697208,26.2631024 L1.78697208,26.2592202 L2.67879427,22.457989 C2.83408669,21.7891409 2.90008597,20.9943985 2.90174981,20.1891187 C2.90008597,19.3267151 2.82354899,18.4676391 2.64995424,17.7555321 L1.71098971,13.9642837 C1.678822,13.8339526 1.66162891,13.6903111 1.66218352,13.537796 C1.66051967,13.1667683 1.76700591,12.7463812 1.95779374,12.3836726 C2.14636311,12.0187455 2.41590638,11.7192613 2.69432351,11.5484443 L6.01314439,9.49032222 C6.61656637,9.11485774 7.24827376,8.57689535 7.83505726,7.98402751 C8.42017692,7.39005047 8.949835,6.7517054 9.31809989,6.14441795 L11.3352375,2.80073207 C11.5043953,2.51733126 11.8061063,2.24114026 12.1738166,2.04758472 C12.5393084,1.85181077 12.9641441,1.74255449 13.3374005,1.74366369 C13.4804914,1.74366369 13.6147084,1.7586379 13.7383877,1.78803172 L17.540279,2.67927458 C18.208591,2.8345627 19.0028008,2.90111475 19.8086576,2.90222395 C20.6710851,2.90056015 21.530185,2.82402529 22.2439755,2.64988076 L26.0347744,1.71149687 C26.1651091,1.67877544 26.3082,1.66213743 26.4607193,1.66213743 C26.8317573,1.66102823 27.2521561,1.76695691 27.6148748,1.95773945 C27.9792574,2.14685819 28.2798591,2.41639399 28.4501262,2.69480339 L30.5083054,6.01297765 C30.8843349,6.6158283 31.421203,7.24751816 32.0140872,7.8342854 C32.6086354,8.41938883 33.2469981,8.94958682 33.8543024,9.3178415 L37.198081,11.3349232 C37.4814897,11.5040763 37.7571337,11.8057789 37.9506947,12.173479 C38.1470286,12.5389607 38.256288,12.9643392 38.2546241,13.3370307 C38.2551787,13.4801176 38.2396495,13.6159947 38.2108095,13.7402252 L38.2108095,13.739116 L37.3195419,17.5403472 C37.1648041,18.2086407 37.0965863,19.0033831 37.0960317,19.8092175 C37.0976956,20.6710665 37.1736779,21.5301425 37.3489365,22.2444679 L38.2873464,26.0334979 L38.2867918,26.0334979 C38.3195142,26.1627198 38.335598,26.3063613 38.335598,26.4599856 C38.3372619,26.8310133 38.2313302,27.251955 38.0405424,27.6146636 Z" id="Shape" fill-rule="nonzero"></path>
                    </g>
                </g>
            </g>
        </g>
    </g>
</svg>