<?xml version="1.0" encoding="UTF-8"?>
<svg width="320px" height="85px" viewBox="0 0 320 85" version="1.1" xmlns="http://www.w3.org/2000/svg" xmlns:xlink="http://www.w3.org/1999/xlink">
    <!-- Generator: Sketch 52 (66869) - http://www.bohemiancoding.com/sketch -->
    <title>logo copy</title>
    <desc>Created with Sketch.</desc>
    <defs>
        <linearGradient x1="28.0267808%" y1="90.7812862%" x2="84.6451212%" y2="13.5791213%" id="linearGradient-1">
            <stop stop-color="#422139" offset="0%"></stop>
            <stop stop-color="#982849" offset="51%"></stop>
            <stop stop-color="#CD2434" offset="100%"></stop>
        </linearGradient>
    </defs>
    <g id="Welcome" stroke="none" stroke-width="1" fill="none" fill-rule="evenodd">
        <g id="Index" transform="translate(-137.000000, -756.000000)">
            <g id="Sobre-nosotros" transform="translate(137.000000, 728.000000)">
                <g id="logo-copy" transform="translate(0.000000, 28.000000)">
                    <path d="M83.2876712,54.7945205 C78.4457227,54.7945205 74.5205479,50.8334319 74.5205479,45.9471814 L74.5205479,10.9589041 C79.3624964,10.9589041 83.2876712,14.9199928 83.2876712,19.8062433 L83.2876712,54.7945205 Z" id="Path" fill="#1D1D1D"></path>
                    <path d="M118.356164,53.1536926 C118.356164,54.5643325 116.589278,54.8712499 115.652828,53.8324524 L95.8460284,30.896275 L95.728236,54.7945205 L87.6712329,54.7945205 L87.6712329,12.4989345 C87.6738772,11.8610185 88.0671311,11.2901958 88.6614254,11.0616329 C89.2557197,10.8330701 89.9290759,10.9936797 90.3569006,11.4660393 L110.299161,35.5413526 L110.299161,11.0115653 L118.350275,11.0115653 L118.356164,53.1536926 Z" id="Path" fill="#1D1D1D"></path>
                    <path d="M144.105296,54.793679 C138.550801,54.7934127 133.224018,52.5354213 129.297299,48.516657 C124.268503,43.3959551 121.926795,36.1299009 122.992558,28.9537676 C123.628629,24.2270245 125.725724,19.8322509 128.977409,16.4116232 C136.707481,8.21417778 149.357017,7.63906194 157.767506,15.1026707 L157.808219,15.1443192 L157.767506,15.1859677 L151.794288,21.2963957 L151.759391,21.2666468 C149.568829,19.5789762 146.899958,18.6682209 144.157642,18.672541 L143.954075,18.672541 C140.551538,18.734359 137.314235,20.1845522 134.962259,22.7005447 C129.83952,28.1453428 129.870423,36.7679617 135.032053,42.1741874 C139.486232,46.8500918 146.637254,47.4276815 151.753574,43.5247883 L151.788472,43.5247883 L151.823369,43.5545372 L157.773322,49.6411661 L157.726793,49.6768648 C154.771873,52.2828652 151.156502,53.9804665 147.29838,54.573537 C146.241027,54.7297504 145.173577,54.8033439 144.105296,54.793679 Z M144.146009,46.1664923 C136.86415,46.1664923 130.972359,39.8954201 131.071234,32.1963998 C131.170109,24.7770193 136.887415,18.7260891 143.954075,18.618993 C146.77788,18.5727872 149.53635,19.4896738 151.794288,21.2249983 L157.732609,15.150269 C153.103394,11.0268536 146.930799,9.2043915 140.865683,10.1702999 C131.652852,11.5803987 124.365177,19.2615697 123.021639,28.9716169 C120.951078,43.9769719 133.013838,56.6857102 147.257666,54.5021396 C151.105128,53.9099325 154.710361,52.2164831 157.656998,49.617367 L151.753574,43.5783364 C149.555767,45.2554809 146.887953,46.1630929 144.146009,46.1664923 Z M157.645366,15.150269 L151.782655,21.1476511 C149.524975,19.4188058 146.767899,18.5100774 143.948259,18.5654449 C140.51042,18.6219034 137.238142,20.0856071 134.863384,22.6291473 C129.693968,28.1169554 129.724885,36.8142301 134.933178,42.2634341 C139.413651,46.9690028 146.603902,47.5637393 151.765207,43.6556835 L157.581388,49.6054674 C149.310242,56.8028872 137.019628,56.2847359 129.35546,48.4155106 C124.352861,43.3210362 122.022176,36.09324 123.079801,28.9537676 C123.711404,24.245662 125.798306,19.867571 129.03557,16.4592214 C132.198049,13.0891814 136.361666,10.8842407 140.877315,10.1881492 C141.941828,10.0228139 143.016952,9.93928318 144.093664,9.93825832 C149.079222,9.93734311 153.895268,11.7896036 157.645366,15.150269 Z" id="Shape" fill="#1D1D1D" fill-rule="nonzero"></path>
                    <path d="M199.452055,54.7945205 L190.81976,54.7945205 L188.120729,48.2525976 L172.404197,48.2525976 L169.728185,54.7123061 L161.09589,54.7123061 L175.977967,18.9431388 L178.901438,11.8961841 C179.136111,11.3281809 179.681407,10.9589041 180.285482,10.9589041 C180.889558,10.9589041 181.434854,11.3281809 181.669527,11.8961841 L184.592998,18.9431388 L199.452055,54.7945205 Z M184.725359,40.0663853 L180.26534,29.3197795 L175.799566,40.0663853 L184.725359,40.0663853 Z" id="Shape" fill="#1D1D1D" fill-rule="nonzero"></path>
                    <path d="M232.788415,54.7945205 L232.788415,31.4430985 L223.033869,42.0503662 C222.743734,42.3634362 222.33874,42.5410164 221.914879,42.5410164 C221.491018,42.5410164 221.086024,42.3634362 220.795889,42.0503662 L211.05306,31.5143281 L211.05306,54.7885848 L202.739726,54.7885848 L202.845181,11.7896774 C202.847692,11.4694479 203.043716,11.1835273 203.339021,11.0693598 C203.634327,10.9551923 203.968515,11.0361291 204.180938,11.2732632 L221.809424,31.0157212 L239.584375,11.2139052 C239.797521,10.9759871 240.133147,10.8953973 240.429007,11.0110939 C240.724867,11.1267906 240.920023,11.4149432 240.920133,11.7362553 L241.09589,54.7885848 L232.788415,54.7945205 Z" id="Path" fill="#1D1D1D"></path>
                    <path d="M245.479452,54.7826923 L245.479452,10.9589041 L275.068493,10.9589041 L275.068493,18.647288 L253.504685,18.647288 L253.504685,28.387879 L269.386138,28.387879 C269.350862,32.9038326 265.717921,36.5375047 261.267656,36.5079952 L253.691183,36.4547679 L253.691183,46.9464548 L275.045181,47.0529094 L275.045181,54.7945205 L245.479452,54.7826923 Z" id="Path" fill="#1D1D1D"></path>
                    <path d="M298.082192,22.2065028 L294.504329,16.5877305 C292.718085,13.776674 289.594268,12.0653924 286.229793,12.0547945 L281.643836,12.0547945 L293.542851,29.5890411 L298.082192,22.2065028 Z" id="Path" fill="#98264A"></path>
                    <polygon id="Path" fill="#1D1D1D" points="304.862912 32.293259 318.99708 11.07088 319.067052 10.9589041 309.12532 10.9589041 280.623747 54.5646753 280.547945 54.6766512 290.781223 54.6766512 300.332282 39.6365203 309.900834 54.7591597 309.918327 54.7945205 320 54.7945205"></polygon>
                    <path d="M16.9238696,84.3835393 C15.9946549,84.384207 15.1052411,84.0095761 14.4605703,83.3459704 C13.8158996,82.6823648 13.4715784,81.7870242 13.5069467,80.8662567 L13.9089376,70.9768304 L4.50944392,74.1482469 C3.08383741,74.6252931 1.51132138,74.1214979 0.63666852,72.9075056 C-0.237984343,71.6935133 -0.208913035,70.0550528 0.708265023,68.8723229 L11.3846711,54.8383653 C4.06440089,44.8682593 2.66408842,31.78288 7.71121783,20.5113633 C12.7583472,9.23984655 23.4861395,1.494604 35.8535389,0.193193626 C48.2209383,-1.10821675 60.3490427,4.23192027 67.6693122,14.2020267 C68.8013563,15.8199044 68.9769934,17.9137671 68.1300627,19.6948769 C67.2831319,21.4759867 65.5423022,22.6737507 63.5633274,22.8369828 C61.5843526,23.0002148 59.667886,22.1041161 58.535842,20.4862383 C52.4192113,12.1671116 41.5971819,8.69819853 31.7272809,11.8929731 C21.8573799,15.0877477 15.1833489,24.2199364 15.1942297,34.5154248 C15.2051104,44.8109132 21.8984294,53.9292102 31.7750614,57.1034637 C41.6516935,60.2777172 52.466367,56.7863188 58.5654001,48.4544973 C58.7023259,48.2639203 58.8724975,48.0991439 59.0678888,47.9679399 C59.0092447,47.318291 58.5928321,46.754184 57.9860603,46.5024054 C57.4990955,46.3564778 56.9718754,46.5245226 56.6618549,46.9244794 C51.2326271,54.291706 41.6388545,57.3573076 32.8933968,54.5194711 C24.1479391,51.6816347 18.2376259,43.5850717 18.2506657,34.4603321 C18.2637056,25.3355925 24.197136,17.2556728 32.9506695,14.4424266 C41.7042029,11.6291803 51.2891751,14.7217326 56.6973246,22.1041883 C57.3878517,23.0447022 57.1787602,24.3622354 56.2303057,25.0469813 C55.2818512,25.7317272 53.9531941,25.5243863 53.2626669,24.5838725 C48.9340798,18.6734514 41.2596139,16.1994674 34.2536335,18.4560138 C27.2476531,20.7125601 22.5040087,27.1862756 22.5040087,34.4908853 C22.5040087,41.7954949 27.2476531,48.2692104 34.2536335,50.5257568 C41.2596139,52.7823031 48.9340798,50.3083192 53.2626669,44.397898 C54.6538155,42.5923456 57.0241577,41.8251695 59.2215912,42.4692547 C61.6276251,43.1961598 63.1823841,45.3592886 63.3597331,48.2610467 C63.44309,49.5553757 62.7662425,50.781308 61.6217135,51.4090147 C54.2629985,61.0249348 41.5158197,64.8784209 29.9989287,60.9686171 C18.4820377,57.0588133 10.7910539,46.2668916 10.9193874,34.1963704 C11.0477209,22.1258492 18.9664485,11.4971223 30.5639081,7.82897194 C42.1613678,4.16082159 54.8237819,8.2799572 61.9764113,18.047589 C62.1640208,18.3405859 62.4583447,18.5505569 62.7981281,18.6338028 C63.339543,18.748536 63.8953338,18.5140094 64.1873614,18.047589 C64.473726,17.6194719 64.473726,17.0629309 64.1873614,16.6348138 C57.6320909,7.79341489 46.7684611,3.15752617 35.7870049,4.5153938 C24.8055487,5.87326143 15.4226338,13.0126549 11.2576227,23.1796269 C7.0926116,33.346599 8.79648262,44.9520833 15.7119851,53.5193843 C16.3260839,54.2704846 16.343172,55.340442 15.7533666,56.1104491 L5.70359343,69.300259 L12.6379369,67.0257496 C13.9419609,66.5983367 15.3744175,66.8315627 16.4721552,67.6500191 C17.5698928,68.4684756 18.1936187,69.7683081 18.1416656,71.1292459 L17.846084,78.3748482 L27.4702197,65.7536657 C28.6177001,64.2477711 30.5548624,63.5576116 32.4064318,63.9950244 C34.7295877,64.5476866 37.1113444,64.8212637 39.5003893,64.8098615 C41.8897352,64.8084737 44.2706652,64.5290891 46.5943468,63.9774379 C48.4481366,63.5310975 50.391845,64.2227609 51.5364706,65.7360793 L61.083755,78.3279511 L60.7881735,71.0940731 C60.7362203,69.7331353 61.3599463,68.4333028 62.4576839,67.6148463 C63.5554215,66.7963898 64.9878782,66.5631639 66.2919022,66.9905767 L73.2321573,69.2709483 L64.2523894,57.4177058 C63.1038359,55.9149288 63.0894017,53.8418687 64.2169196,52.3235082 C64.6551642,51.7098665 65.3902569,51.3746816 66.1452953,51.4442142 C66.9003337,51.5137469 67.5606095,51.9774335 67.8774033,52.6606078 C68.194197,53.3437821 68.1193802,54.1426537 67.6811355,54.7562953 L78.221574,68.8254258 C79.1163746,70.0081039 79.1328474,71.6300366 78.2622491,72.8303456 C77.3916507,74.0306546 75.8357573,74.5311479 74.4203951,74.0661769 L64.9617851,70.9533818 L65.4465389,80.7900489 C65.5021193,82.2671577 64.5856667,83.609538 63.1820131,84.107029 C61.7783595,84.6045199 60.2114651,84.1423016 59.3102657,82.964902 L48.1431942,68.2450742 C48.016571,68.0756534 47.8003733,67.9972751 47.5934125,68.0457615 C44.9501216,68.673007 42.2419544,68.991725 39.5240358,68.9954278 C36.8064164,69.0043835 34.0974425,68.6914746 31.4546592,68.0633479 C31.2465938,68.017728 31.0309848,68.0981919 30.9048775,68.2685227 L19.6727781,83.0000748 C19.034077,83.8726714 18.0111873,84.387469 16.9238696,84.3835393 Z" id="Shape" fill="url(#linearGradient-1)" fill-rule="nonzero"></path>
                </g>
            </g>
        </g>
    </g>
</svg>