<?xml version="1.0" encoding="UTF-8"?>
<svg width="150px" height="40px" viewBox="0 0 150 40" version="1.1" xmlns="http://www.w3.org/2000/svg" xmlns:xlink="http://www.w3.org/1999/xlink">
    <!-- Generator: Sketch 52 (66869) - http://www.bohemiancoding.com/sketch -->
    <title>cincamex blanco copy</title>
    <desc>Created with Sketch.</desc>
    <g id="Welcome" stroke="none" stroke-width="1" fill="none" fill-rule="evenodd">
        <g id="Index" transform="translate(-84.000000, -24.000000)">
            <g id="Menú">
                <g id="cincamex-blanco-copy" transform="translate(84.000000, 17.000000)">
                    <path d="M39.7282609,32.6086957 C37.465094,32.6086957 35.6304348,30.7740364 35.6304348,28.5108696 L35.6304348,12.3152174 C37.8936016,12.3152174 39.7282609,14.1498766 39.7282609,16.4130435 L39.7282609,32.6086957 Z" id="Path" fill="#FFFFFF"></path>
                    <path d="M55.7173913,31.826087 C55.7173913,32.4782609 54.9021739,32.6195652 54.4673913,32.1413043 L45.2826087,21.5326087 L45.2826087,32.5869565 L41.4891304,32.5869565 L41.4891304,13.0434783 C41.4900961,12.7470389 41.6732936,12.4817236 41.9501611,12.3757917 C42.2270287,12.2698597 42.5405375,12.3451309 42.7391304,12.5652174 L51.9891304,23.7065217 L51.9891304,12.3369565 L55.7173913,12.3369565 L55.7173913,31.826087 Z" id="Path" fill="#FFFFFF"></path>
                    <path d="M67.7391304,32.6086957 C65.1326311,32.6122001 62.6325077,31.5753727 60.7934783,29.7282609 C58.4334307,27.3773332 57.3318343,24.0442981 57.826087,20.75 C58.1250094,18.5814607 59.1117711,16.5660286 60.6413043,15 C64.2568739,11.2153091 70.2109245,10.9470654 74.1521739,14.3913043 L71.3478261,17.1956522 C70.3176142,16.427868 69.0674537,16.0124183 67.7826087,16.0108696 L67.6847826,16.0108696 C66.0840742,16.0324695 64.5597069,16.6986455 63.4565217,17.8586957 C61.0405131,20.3469812 61.0405131,24.3051927 63.4565217,26.7934783 C65.5459696,28.9408864 68.9038201,29.2059799 71.3043478,27.4130435 L74.0978261,30.2065217 C72.7099334,31.3992562 71.0153121,32.178782 69.2065217,32.4565217 C68.7211163,32.5383356 68.2309946,32.589163 67.7391304,32.6086957 Z M67.7391304,28.6413043 C64.2513324,28.6653165 61.4044476,25.8573633 61.3804353,22.3695652 C61.3564229,18.8817671 64.1643758,16.0348822 67.6521739,16.0108696 C68.9756421,15.9901502 70.268311,16.4108413 71.326087,17.2065217 L74.1195652,14.4130435 C71.946266,12.524858 69.0515808,11.6898526 66.2065217,12.1304348 C60.7252135,13.0976765 57.0086024,18.250785 57.8208781,23.7571908 C58.6331539,29.2635965 63.6793987,33.124055 69.2065217,32.4673913 C71.0135823,32.2017204 72.7069743,31.4247967 74.0869565,30.2282609 L71.3152174,27.4565217 C70.2840439,28.2093785 69.0375735,28.6096213 67.7608696,28.5978261 L67.7391304,28.6413043 Z M74.076087,14.4130435 L71.326087,17.1630435 C68.8842423,15.3534307 65.4766559,15.6471078 63.3804348,17.8478261 C60.9787771,20.3671628 60.9787771,24.3284894 63.3804348,26.8478261 C64.5233472,28.0191232 66.0917493,28.6778521 67.7282609,28.673913 C69.0166987,28.6739273 70.2707915,28.2584375 71.3043478,27.4891304 L74.0434783,30.2282609 C72.6633419,31.3931246 70.9834664,32.146432 69.1956522,32.4021739 C66.11505,32.8727066 62.9945829,31.8473526 60.7934783,29.6413043 C58.4457722,27.3059409 57.3517104,23.9914584 57.8478261,20.7173913 C58.1414751,18.5580741 59.1206954,16.5501009 60.6413043,14.9891304 C62.1269037,13.440112 64.0840122,12.4271554 66.2065217,12.1086957 C66.7028427,12.0315092 67.2042405,11.9915427 67.7065217,11.9891304 C70.0554702,11.9794099 72.3275324,12.8256372 74.0978261,14.3695652 L74.076087,14.4130435 Z" id="Shape" fill="#FFFFFF" fill-rule="nonzero"></path>
                    <path d="M93.4782609,32.5434783 L89.3913043,32.5434783 L88.1086957,29.5 L80.6413043,29.5 L79.3478261,32.5 L75.2608696,32.5 L82.3043478,15.8695652 L83.6847826,12.6086957 C83.7988232,12.3471254 84.0570419,12.1780117 84.3423913,12.1780117 C84.6277407,12.1780117 84.8859594,12.3471254 85,12.6086957 L86.3913043,15.8695652 L93.4782609,32.5434783 Z M86.4891304,25.6956522 L84.3804348,20.6956522 L82.2065217,25.6956522 L86.4891304,25.6956522 Z" id="Shape" fill="#FFFFFF" fill-rule="nonzero"></path>
                    <path d="M109.271739,32.6086957 L109.271739,21.8695652 L104.728261,26.75 C104.590084,26.904913 104.392366,26.9934978 104.184783,26.9934978 C103.977199,26.9934978 103.779481,26.904913 103.641304,26.75 L99.0978261,21.9021739 L99.0978261,32.6086957 L95.2282609,32.6086957 L95.2282609,12.826087 C95.2310995,12.6803999 95.3217903,12.5509075 95.4577309,12.4984392 C95.5936715,12.4459708 95.7478443,12.4809545 95.8478261,12.5869565 L104.054348,21.673913 L112.347826,12.5652174 C112.447808,12.4592154 112.601981,12.4242317 112.737921,12.4767 C112.873862,12.5291683 112.964553,12.6586608 112.967391,12.8043478 L113.043478,32.6086957 L109.271739,32.6086957 Z" id="Path" fill="#FFFFFF"></path>
                    <path d="M114.858696,32.6086957 L114.858696,12.326087 L128.728261,12.326087 L128.728261,15.8804348 L118.630435,15.8804348 L118.630435,20.3695652 L126.086957,20.3695652 C126.081208,21.3698978 125.678305,22.3269737 124.966886,23.0302387 C124.255467,23.7335037 123.293811,24.1253474 122.293478,24.1195652 L118.73913,24.1195652 L118.73913,28.9565217 L128.73913,29.0108696 L128.73913,32.6086957 L114.858696,32.6086957 Z" id="Path" fill="#FFFFFF"></path>
                    <path d="M138.913043,17.1847826 L137.23913,14.5217391 C136.407012,13.1764934 134.940485,12.3549097 133.358696,12.3478261 L131.184783,12.3478261 L136.76087,20.6847826 L138.913043,17.1847826 Z" id="Path" fill="#CA262D"></path>
                    <polygon id="Path" fill="#FFFFFF" points="142.108696 22.1956522 148.717391 12.3586957 148.76087 12.3043478 144.097826 12.3043478 130.75 32.5108696 130.717391 32.5652174 135.51087 32.5652174 139.98913 25.5869565 144.467391 32.5978261 144.467391 32.6195652 149.195652 32.6195652"></polygon>
                    <path d="M8.61956522,46.5869565 C8.43410121,46.5861368 8.25019591,46.5530338 8.07608696,46.4891304 C7.41163779,46.2725268 6.9691756,45.6442305 6.98913043,44.9456522 L7.18478261,40.3369565 L2.83695652,41.8152174 C2.18394028,42.0301503 1.46694848,41.797018 1.06521739,41.2391304 C0.648546761,40.6855897 0.648546761,39.923106 1.06521739,39.3695652 L5.98913043,32.8478261 C2.50906655,28.2098506 1.79627575,22.0571991 4.12376564,16.7464127 C6.45125554,11.4356263 11.4583236,7.78974359 17.2272013,7.20518246 C22.996079,6.62062133 28.632735,9.18797406 31.9782609,13.923913 C32.5571226,14.7862069 32.5589268,15.9124533 31.9828308,16.7765973 C31.4067347,17.6407414 30.3664288,18.0722476 29.3478261,17.8695652 C28.7246961,17.7316986 28.1770158,17.3626942 27.8152174,16.8369565 C24.9922154,12.9676126 20.0002118,11.3538297 15.4464147,12.8384495 C10.8926177,14.3230693 7.81098693,18.5690022 7.81098693,23.3586957 C7.81098693,28.1483891 10.8926177,32.394322 15.4464147,33.8789418 C20.0002118,35.3635616 24.9922154,33.7497787 27.8152174,29.8804348 C27.8795189,29.7934106 27.9564541,29.7164754 28.0434783,29.6521739 C28.0189453,29.3505742 27.8250104,29.0891837 27.5434783,28.9782609 C27.3196203,28.9081134 27.0758437,28.9864701 26.9347826,29.173913 C24.4339908,32.5863239 20.022988,34.0045021 16.0020883,32.6888753 C11.9811887,31.3732485 9.26161819,27.6219671 9.26161819,23.3913043 C9.26161819,19.1606416 11.9811887,15.4093602 16.0020883,14.0937334 C20.022988,12.7781066 24.4339908,14.1962848 26.9347826,17.6086957 C27.2480354,18.0480877 27.1513085,18.6574672 26.7173913,18.9782609 C26.5081755,19.1345785 26.2446452,19.1996645 25.9867107,19.1587225 C25.7287762,19.1177806 25.4983534,18.9742893 25.3478261,18.7608696 C23.3481825,16.0039543 19.8003181,14.848826 16.5608327,15.8999641 C13.3213474,16.9511023 11.1276135,19.9692465 11.1276135,23.375 C11.1276135,26.7807535 13.3213474,29.7988977 16.5608327,30.8500359 C19.8003181,31.901174 23.3481825,30.7460457 25.3478261,27.9891304 C25.990151,27.1493479 27.0850055,26.7944939 28.0978261,27.0978261 C29.2514805,27.4899742 30.0258762,28.5750032 30.0217391,29.7934783 C30.0542417,30.3957135 29.7425605,30.9643211 29.2173913,31.2608696 C25.817424,35.7441597 19.9257259,37.5418595 14.6020188,35.7203738 C9.27831166,33.8988881 5.72270456,28.8688295 5.78172257,23.2424466 C5.84074057,17.6160637 9.5010794,12.6616969 14.8618239,10.9522859 C20.2225684,9.24287485 26.0752603,11.1637676 29.3804348,15.7173913 C29.4672411,15.8517405 29.6042655,15.9457001 29.7608696,15.9782609 C30.0025567,16.0367924 30.2552381,15.9395984 30.3954001,15.7341886 C30.5355621,15.5287787 30.5339311,15.258054 30.3913043,15.0543478 C27.4377144,10.7358635 22.3397161,8.40280523 17.1408962,8.99040433 C11.9420764,9.57800343 7.49342427,12.9900764 5.57822944,17.8588575 C3.66303462,22.7276386 4.59479326,28.2561623 8,32.2282609 C8.27753342,32.5825545 8.27753342,33.080489 8,33.4347826 L3.35869565,39.576087 L6.61956522,38.4891304 C7.22236894,38.2887805 7.88511738,38.3970915 8.39277724,38.7789212 C8.90043711,39.1607508 9.18832865,39.7674511 9.16304348,40.4021739 L9.02173913,43.7826087 L13.4782609,37.9021739 C14.0012575,37.1964192 14.8975972,36.8747662 15.75,37.0869565 C16.8184831,37.340035 17.9128237,37.4677081 19.0108696,37.4673913 C20.1092029,37.4619137 21.2032928,37.3306229 22.2717391,37.076087 C23.1275579,36.8590911 24.0296167,37.1812549 24.5543478,37.8913043 L28.9673913,43.7608696 L28.8369565,40.3913043 C28.8108223,39.7565265 29.0945306,39.1485802 29.5978261,38.7608696 C30.1090002,38.3783073 30.776,38.2725635 31.3804348,38.4782609 L34.576087,39.5652174 L30.4347826,34.0326087 C29.9094172,33.3301142 29.9094172,32.365538 30.4347826,31.6630435 C30.7554818,31.2307792 31.3607899,31.1298945 31.8043478,31.4347826 C32.2405333,31.7482175 32.3424249,32.3547151 32.0326087,32.7934783 L36.9021739,39.3152174 C37.3111424,39.8671866 37.3154858,40.6204673 36.9129096,41.1771159 C36.5103334,41.7337645 35.7935832,41.96554 35.1413043,41.75 L30.7934783,40.3043478 L31.0108696,44.8804348 C31.0455065,45.5730936 30.6232984,46.2069992 29.970802,46.4419979 C29.3183056,46.6769966 28.5888711,46.4578588 28.173913,45.9021739 L23.0217391,39.1304348 C22.9644667,39.0520539 22.8669978,39.0139139 22.7717391,39.0326087 C21.5507126,39.3265751 20.2993913,39.47615 19.0434783,39.4782609 C17.7878071,39.4829888 16.5361052,39.3370178 15.3152174,39.0434783 C15.2199588,39.0247834 15.1224899,39.0629234 15.0652174,39.1413043 L9.86956522,46 C9.56535187,46.3774934 9.10433091,46.5939728 8.61956522,46.5869565 Z" id="Path" fill="#FFFFFF"></path>
                    <rect id="Rectangle" x="0.804347826" y="0.239130435" width="148.380435" height="46.2391304"></rect>
                </g>
            </g>
        </g>
    </g>
</svg>