<?xml version="1.0" encoding="UTF-8"?>
<svg width="15px" height="21px" viewBox="0 0 15 21" version="1.1" xmlns="http://www.w3.org/2000/svg" xmlns:xlink="http://www.w3.org/1999/xlink">
    <!-- Generator: Sketch 52 (66869) - http://www.bohemiancoding.com/sketch -->
    <title>map marker</title>
    <desc>Created with Sketch.</desc>
    <g id="Welcome" stroke="none" stroke-width="1" fill="none" fill-rule="evenodd">
        <g id="Index" transform="translate(-434.000000, -3595.000000)" fill="#FFFFFF" fill-rule="nonzero">
            <g id="Footer" transform="translate(0.000000, 3541.000000)">
                <g id="map-marker" transform="translate(434.000000, 54.000000)">
                    <path d="M7.5,20.770625 L7.871875,20.285 C8.155,19.915625 14.8046875,11.194375 14.8046875,7.3046875 C14.8046875,3.276875 11.5278125,1.77635684e-13 7.5,1.77635684e-13 C3.4721875,1.77635684e-13 0.1953125,3.276875 0.1953125,7.3046875 C0.1953125,11.194375 6.845,19.915625 7.128125,20.285 L7.5,20.770625 Z M7.5,0.9375 C11.010625,0.9375 13.8671875,3.79375 13.8671875,7.3046875 C13.8671875,10.3840625 8.91375,17.305 7.5,19.2178125 C6.08625,17.3053125 1.1328125,10.385 1.1328125,7.3046875 C1.1328125,3.79375 3.9890625,0.9375 7.5,0.9375 Z" id="Shape"></path>
                    <path d="M9.921875,7.3046875 C9.921875,5.969375 8.8353125,4.8828125 7.5,4.8828125 C6.1646875,4.8828125 5.078125,5.969375 5.078125,7.3046875 C5.078125,8.64 6.1646875,9.7265625 7.5,9.7265625 C8.8353125,9.7265625 9.921875,8.64 9.921875,7.3046875 Z M6.015625,7.3046875 C6.015625,6.48625 6.6815625,5.8203125 7.5,5.8203125 C8.3184375,5.8203125 8.984375,6.48625 8.984375,7.3046875 C8.984375,8.123125 8.3184375,8.7890625 7.5,8.7890625 C6.6815625,8.7890625 6.015625,8.123125 6.015625,7.3046875 Z" id="Shape"></path>
                </g>
            </g>
        </g>
    </g>
</svg>