<?xml version="1.0" encoding="UTF-8"?>
<svg width="321px" height="347px" viewBox="0 0 321 347" version="1.1" xmlns="http://www.w3.org/2000/svg" xmlns:xlink="http://www.w3.org/1999/xlink">
    <!-- Generator: Sketch 52 (66869) - http://www.bohemiancoding.com/sketch -->
    <title>Path</title>
    <desc>Created with Sketch.</desc>
    <g id="Welcome" stroke="none" stroke-width="1" fill="none" fill-rule="evenodd" opacity="0.1">
        <g id="Index-con-modal" transform="translate(-573.000000, -1481.000000)" fill="#939598">
            <g id="Modal" transform="translate(321.000000, 1338.000000)">
                <path d="M316.437354,488.447027 C310.590957,486.546276 306.697792,481.032819 306.873372,474.902619 L308.594889,434.460162 L270.338961,447.432271 C264.593161,449.318361 258.284448,447.272566 254.749671,442.376964 C251.083443,437.519505 251.083443,430.82852 254.749671,425.971061 L298.074509,368.741169 C267.453902,328.041773 261.182154,274.050717 281.661419,227.447237 C302.140685,180.843758 346.197192,148.850225 396.956759,143.720555 C447.716325,138.590885 497.312491,161.120047 526.749316,202.679097 C532.076308,210.307193 532.153881,220.416388 526.944575,228.124901 C521.735268,235.833414 512.310652,239.555581 503.221921,237.493948 C497.739085,236.284134 492.920121,233.046028 489.736706,228.432548 C464.897497,194.478087 420.97354,180.316739 380.905302,193.344649 C340.837064,206.372559 313.722216,243.631683 313.722216,285.662441 C313.722216,327.693199 340.837064,364.952323 380.905302,377.980233 C420.97354,391.008143 464.897497,376.846795 489.736706,342.892334 C490.302487,342.128675 490.979429,341.453549 491.745142,340.889287 C491.52928,338.242675 489.822874,335.948908 487.345711,334.975532 C485.376015,334.35997 483.231058,335.04757 481.989881,336.692429 C459.985756,366.637188 421.173944,379.082057 385.794598,367.537102 C350.415252,355.992148 326.486122,323.073715 326.486122,285.94859 C326.486122,248.823466 350.415252,215.905033 385.794598,204.360079 C421.173944,192.815124 459.985756,205.259993 481.989881,235.204752 C484.746149,239.060528 483.895063,244.407985 480.077085,247.22303 C478.236223,248.594756 475.917456,249.165902 473.647926,248.806626 C471.378395,248.44735 469.350937,247.188178 468.026467,245.315367 C450.431876,221.122745 419.214702,210.986205 390.710913,220.210206 C362.207125,229.434206 342.90476,255.919177 342.90476,285.805516 C342.90476,315.691855 362.207125,342.176826 390.710913,351.400826 C419.214702,360.624826 450.431876,350.488286 468.026467,326.295665 C473.678196,318.926363 483.311672,315.81243 492.223342,318.474246 C502.374189,321.915444 509.187991,331.436845 509.15159,342.129268 C509.437575,347.414033 506.695135,352.403707 502.074243,355.005994 C472.158395,394.347987 420.318149,410.123252 373.475577,394.139259 C326.633006,378.155267 295.347705,334.015244 295.866996,284.642327 C296.386288,235.269409 328.593109,191.793601 375.761567,176.793091 C422.930025,161.792582 474.427061,178.648896 503.50884,218.608083 C504.272637,219.787031 505.478296,220.61155 506.856234,220.897279 C508.982806,221.410908 511.206115,220.558007 512.439381,218.755484 C513.672648,216.952961 513.658297,214.577284 512.403343,212.789711 C486.415109,174.89393 441.558518,154.42076 395.814813,159.57709 C350.071108,164.733419 310.928026,194.675213 294.076488,237.399985 C277.22495,280.124757 285.423367,328.638936 315.385316,363.495095 C317.827295,366.60411 317.827295,370.97361 315.385316,374.082625 L274.547113,427.974107 L303.239059,418.435792 C308.543047,416.677671 314.37448,417.628128 318.84131,420.978778 C323.308139,424.329429 325.841258,429.653376 325.618777,435.223227 L324.375459,464.887388 L363.587785,413.285102 C368.189561,407.091927 376.076331,404.269342 383.576507,406.131365 C392.977944,408.352192 402.606897,409.472555 412.268453,409.469775 C421.932537,409.421708 431.559286,408.269598 440.960399,406.035982 C448.490631,404.131789 456.427723,406.958857 461.044761,413.189719 L499.874527,464.696622 L498.726849,435.127844 C498.496898,429.55751 500.993208,424.222629 505.421637,420.820371 C509.919387,417.463292 515.788228,416.535363 521.106567,418.340409 L549.224674,427.878724 L512.881542,379.519465 C508.258924,373.3549 508.258924,364.890502 512.881542,358.725937 C515.703331,354.93271 521.029354,354.047422 524.93216,356.722891 C528.770096,359.47336 529.666626,364.795529 526.940596,368.645785 L569.787235,425.875678 C573.385692,430.719346 573.423909,437.329573 569.881696,442.214303 C566.339483,447.099034 560.032897,449.132922 554.293584,447.241505 L516.037656,434.555545 L517.950453,474.711853 C518.255219,480.790108 514.540267,486.352788 508.79904,488.41496 C503.057814,490.477132 496.63962,488.554144 492.98846,483.67787 L447.942105,423.872632 C447.438173,423.18482 446.580557,422.850131 445.74239,423.014183 C434.998744,425.593812 423.988539,426.906369 412.937932,426.924893 C401.889452,426.966382 390.875899,425.685449 380.133474,423.109567 C379.295306,422.945515 378.43769,423.280203 377.933758,423.968015 L332.217924,484.154785 C329.541193,487.467384 325.484732,489.367045 321.219345,489.305476 C319.587473,489.298282 317.969315,489.007795 316.437354,488.447027 Z" id="Path"></path>
            </g>
        </g>
    </g>
</svg>