<?xml version="1.0" encoding="UTF-8"?>
<svg width="28px" height="18px" viewBox="0 0 28 18" version="1.1" xmlns="http://www.w3.org/2000/svg" xmlns:xlink="http://www.w3.org/1999/xlink">
    <!-- Generator: Sketch 52 (66869) - http://www.bohemiancoding.com/sketch -->
    <title>Shape</title>
    <desc>Created with Sketch.</desc>
    <g id="Welcome" stroke="none" stroke-width="1" fill="none" fill-rule="evenodd">
        <g id="Index" transform="translate(-1387.000000, -31.000000)" fill="#FFFFFF" fill-rule="nonzero">
            <g id="Menú">
                <path d="M1387.62385,31 L1414.37615,31 L1415,31 L1415,31.6245548 L1415,48.193627 L1415,48.8181818 L1414.37615,48.8181818 L1387.62385,48.8181818 L1387,48.8181818 L1387,48.193627 L1387,31.6245548 L1387,31 L1387.62385,31 Z M1389.61682,32.3101604 L1397.52436,37.7841184 C1399.17943,38.915403 1400.54026,39.8642224 1401.16551,40.302139 C1403.70327,38.5139794 1409.07305,34.6822089 1412.38318,32.3101604 L1389.61682,32.3101604 Z M1413.69159,32.871001 C1410.28519,35.335022 1403.8753,40.005629 1401.56773,41.5870157 L1401.23808,41.8444507 L1400.8718,41.6237921 C1400.46889,41.3663571 1398.85726,40.2262876 1396.84273,38.8287832 C1394.82819,37.3945023 1390.54272,34.3788348 1388.30841,32.8342246 L1388.30841,47.5080214 L1413.69159,47.5080214 L1413.69159,32.871001 Z" id="Shape"></path>
            </g>
        </g>
    </g>
</svg>