<?xml version="1.0" encoding="UTF-8"?>
<svg width="12px" height="22px" viewBox="0 0 12 22" version="1.1" xmlns="http://www.w3.org/2000/svg" xmlns:xlink="http://www.w3.org/1999/xlink">
    <!-- Generator: Sketch 52 (66869) - http://www.bohemiancoding.com/sketch -->
    <title>noun_cellphone_1032017</title>
    <desc>Created with Sketch.</desc>
    <g id="Welcome" stroke="none" stroke-width="1" fill="none" fill-rule="evenodd">
        <g id="Index" transform="translate(-699.000000, -3592.000000)" fill="#FFFFFF" fill-rule="nonzero">
            <g id="Footer" transform="translate(0.000000, 3541.000000)">
                <g id="noun_cellphone_1032017" transform="translate(699.000000, 51.000000)">
                    <path d="M11.5764706,0 L0.423529412,0 C0.176470588,0 0,0.18 0,0.432 L0,21.168 C0,21.42 0.176470588,21.6 0.423529412,21.6 L11.5764706,21.6 C11.8235294,21.6 12,21.42 12,21.168 L12,0.432 C12,0.18 11.8235294,0 11.5764706,0 Z M4.44705882,0.864 L7.55294118,0.864 C7.62352941,0.864 7.69411765,0.972 7.69411765,1.08 C7.69411765,1.188 7.62352941,1.296 7.55294118,1.296 L4.44705882,1.296 C4.37647059,1.296 4.30588235,1.188 4.30588235,1.08 C4.27058824,0.972 4.34117647,0.864 4.44705882,0.864 Z M6,20.736 C5.29411765,20.736 4.72941176,20.16 4.72941176,19.44 C4.72941176,18.72 5.29411765,18.144 6,18.144 C6.70588235,18.144 7.27058824,18.72 7.27058824,19.44 C7.27058824,20.16 6.70588235,20.736 6,20.736 Z M10.7294118,17.064 L1.27058824,17.064 C1.16470588,17.064 1.05882353,16.956 1.05882353,16.848 L1.05882353,2.592 C1.05882353,2.484 1.16470588,2.376 1.27058824,2.376 L10.6941176,2.376 C10.8,2.376 10.9058824,2.484 10.9058824,2.592 L10.9058824,16.848 C10.9411765,16.956 10.8352941,17.064 10.7294118,17.064 Z" id="Shape"></path>
                </g>
            </g>
        </g>
    </g>
</svg>