<?xml version="1.0" encoding="UTF-8"?>
<svg width="24px" height="24px" viewBox="0 0 24 24" version="1.1" xmlns="http://www.w3.org/2000/svg" xmlns:xlink="http://www.w3.org/1999/xlink">
    <!-- Generator: Sketch 52 (66869) - http://www.bohemiancoding.com/sketch -->
    <title>Group 6</title>
    <desc>Created with Sketch.</desc>
    <defs>
        <polygon id="path-1" points="0.585454545 0.000145454545 23.8581818 0.000145454545 23.8581818 23.2727273 0.585454545 23.2727273"></polygon>
    </defs>
    <g id="Welcome" stroke="none" stroke-width="1" fill="none" fill-rule="evenodd">
        <g id="Index" transform="translate(-1119.000000, -3623.000000)">
            <g id="Footer" transform="translate(0.000000, 3541.000000)">
                <g id="Group-6" transform="translate(1119.000000, 82.000000)">
                    <mask id="mask-2" fill="white">
                        <use xlink:href="#path-1"></use>
                    </mask>
                    <g id="Clip-5"></g>
                    <path d="M16.8487273,9.26414545 C16.8538182,9.36669091 16.856,9.46850909 16.856,9.57250909 C16.856,12.7274182 14.4545455,16.3652364 10.0632727,16.3652364 C8.71418182,16.3652364 7.46036364,15.9703273 6.40363636,15.2925091 C6.59127273,15.3150545 6.78036364,15.3252364 6.97309091,15.3252364 C8.09236364,15.3252364 9.12072727,14.9448727 9.93745455,14.3041455 C8.89381818,14.2852364 8.01163636,13.5950545 7.70836364,12.6459636 C7.85381818,12.6743273 8.00290909,12.6888727 8.15709091,12.6888727 C8.37527273,12.6888727 8.58618182,12.6605091 8.78545455,12.6052364 C7.69454545,12.3863273 6.87054545,11.4205091 6.87054545,10.2641455 L6.87054545,10.2343273 C7.19345455,10.4132364 7.56072727,10.5216 7.95272727,10.5325091 C7.312,10.1048727 6.89090909,9.37323636 6.89090909,8.5456 C6.89090909,8.10778182 7.00872727,7.69905455 7.21381818,7.34487273 C8.39054545,8.78996364 10.1505455,9.73978182 12.1345455,9.83941818 C12.0938182,9.66487273 12.0727273,9.48305455 12.0727273,9.29541818 C12.0727273,7.97687273 13.1410909,6.90923636 14.4603636,6.90923636 C15.1461818,6.90923636 15.7672727,7.19869091 16.2021818,7.66196364 C16.7454545,7.55505455 17.2574545,7.35650909 17.7185455,7.08378182 C17.5396364,7.64087273 17.1621818,8.10923636 16.6690909,8.40305455 C17.152,8.34632727 17.6123636,8.21905455 18.04,8.02850909 C17.72,8.50705455 17.3156364,8.92741818 16.8487273,9.26414545 Z M0.585454545,23.2728727 L23.8581818,23.2728727 L23.8581818,0.000145454545 L0.585454545,0.000145454545 L0.585454545,23.2728727 Z" id="Fill-4" fill="#FFFFFF" mask="url(#mask-2)"></path>
                </g>
            </g>
        </g>
    </g>
</svg>